<?xml version="1.0" standalone="no"?>
<!DOCTYPE svg PUBLIC "-//W3C//DTD SVG 20010904//EN"
 "http://www.w3.org/TR/2001/REC-SVG-20010904/DTD/svg10.dtd">
<svg version="1.0" xmlns="http://www.w3.org/2000/svg"
 width="588.000000pt" height="528.000000pt" viewBox="0 0 588.000000 528.000000"
 preserveAspectRatio="xMidYMid meet">

<g transform="translate(0.000000,528.000000) scale(0.100000,-0.100000)"
fill="#000000" stroke="none">
<path d="M0 2640 l0 -2640 2940 0 2940 0 0 2640 0 2640 -2940 0 -2940 0 0
-2640z m3245 1470 c300 -64 541 -195 761 -414 220 -221 350 -460 416 -770 29
-136 31 -425 4 -561 -61 -309 -198 -567 -416 -786 -179 -180 -358 -292 -585
-368 -177 -59 -279 -75 -480 -75 -200 0 -303 16 -476 74 -234 78 -404 184
-585 364 -220 221 -349 459 -416 770 -32 148 -32 436 1 586 91 425 341 778
708 998 166 100 379 175 575 201 115 16 376 5 493 -19z"/>
<path d="M2088 2928 l-3 -93 -43 3 c-60 5 -135 -23 -170 -63 -41 -45 -55 -95
-50 -171 3 -52 9 -70 35 -101 47 -59 105 -76 230 -70 56 3 106 8 112 11 8 5
11 98 11 292 l0 284 -60 0 -59 0 -3 -92z m-3 -293 l0 -100 -41 -3 c-76 -6
-121 62 -94 142 14 43 51 67 100 63 l35 -2 0 -100z"/>
<path d="M2280 2960 l0 -60 65 0 65 0 0 60 0 60 -65 0 -65 0 0 -60z"/>
<path d="M2540 2822 l-55 -18 -3 -47 c-2 -26 -1 -47 1 -47 3 0 24 7 47 15 23
8 64 15 91 15 48 0 49 -1 49 -30 0 -26 -4 -30 -28 -30 -55 0 -130 -29 -156
-61 -48 -56 -28 -156 35 -178 35 -12 171 -15 232 -4 l39 6 -4 161 c-2 107 -8
169 -17 184 -28 51 -128 66 -231 34z m140 -262 c0 -34 -3 -40 -26 -46 -41 -10
-79 7 -79 36 0 28 34 50 78 50 25 0 27 -3 27 -40z"/>
<path d="M2955 2833 c-16 -2 -47 -9 -67 -14 l-38 -10 0 -189 0 -190 60 0 60 0
0 149 c0 162 0 161 60 161 54 0 60 -17 60 -171 l0 -139 60 0 60 0 0 164 c0
161 -1 165 -25 194 -37 44 -119 60 -230 45z"/>
<path d="M3443 2830 c-123 -26 -185 -98 -185 -215 0 -70 17 -110 62 -148 34
-29 101 -43 155 -33 32 6 35 5 35 -18 0 -79 -110 -108 -234 -60 -14 5 -16 -2
-16 -49 0 -53 1 -55 31 -66 18 -6 65 -11 106 -11 113 0 177 34 214 115 16 34
19 66 19 213 0 134 3 172 13 172 7 0 23 20 34 44 l22 44 -22 6 c-41 11 -192
15 -234 6z m67 -195 l0 -105 -34 0 c-48 0 -65 8 -81 41 -41 77 8 166 93 168
21 1 22 -2 22 -104z"/>
<path d="M3805 2821 c-75 -34 -115 -104 -115 -201 1 -176 207 -264 340 -144
49 45 63 87 58 178 -3 62 -8 79 -32 111 -54 70 -165 95 -251 56z m134 -100
c42 -42 39 -146 -6 -181 -32 -25 -54 -25 -82 -2 -43 34 -45 138 -5 183 22 25
69 24 93 0z"/>
<path d="M2280 2638 c0 -222 -10 -261 -75 -299 -19 -12 -35 -23 -35 -25 0 -6
98 -54 109 -54 22 0 85 67 105 110 18 39 21 71 24 253 l4 207 -66 0 -66 0 0
-192z"/>
</g>
</svg>
